# xmcd
#
# Track frame offsets: 
#        150
#        8292
#        22702
#        36932
#        48940
#        61017
#        72591
#        81770
#        92993
#        101023
#        110765
#        121762
#        131992
#        141556
#        152250
#        162902
#        172658
#        182186
#        194176
#        206095
#
# Disc length: 2899 seconds
#
# Revision: 0
# Processed by: cddbd v1.5.2PL0 Copyright (c) Steve Scherf et al.
# Submitted via: ExactAudioCopy v0.99pb5
#
DISCID=100b5114
DTITLE=Various Artist - Lemon Popsicles And Strawberry Milkshakes CD3
DYEAR=1900
DGENRE=Rock and Roll
TTITLE0=Buddy Holly - Rave On - American Hot Wax - 1958 Original Sonny
TTITLE0=West 1958
TTITLE1=Kay Starr - Wheel Of Fortune - L.A. Confidential - 1952 Origin
TTITLE1=al Johnny Hartman 1951
TTITLE2=Moonglows, The - Sincerely - Goodfellas - 1954
TTITLE3=Brenda Lee - I'm Sorry - Casino - 1960
TTITLE4=Jerry Lee Lewis And His Pumping Piano - Breathless - Breathles
TTITLE4=s - 1958
TTITLE5=Bobby Day - Rockin' Robin - You've Got Mail - 1958
TTITLE6=Everly Brothers, The - When Will I Be Loved - Cocktail - 1960
TTITLE7=Buddy Holly - Peggy Sue Got Married - The Buddy Holly Story - 
TTITLE7=1959
TTITLE8=Elvis Presley With The Jordanaires - (Let Me Be Your) Teddy Be
TTITLE8=ar - Loving You - 1957
TTITLE9=Bill Haley and His Comets - Rock Around The Clock - Blackboard J
TTITLE9=ungle - 1954 Original Sonny Dae and his Knights 1954
TTITLE10=Fats Domino - Ain't It A Shame - American Grafitti - 1955
TTITLE11=Little Anthony and The Imperials - Tears On My Pillow - Grease 
TTITLE11=1958
TTITLE12=Buddy Holly - Everyday - Stand By Me - 1957
TTITLE13=Brian Hyland - Itsy Bitsy Teenie Weenie Yellow Polkadot Bikin
TTITLE13=i - Sister Act 2 - 1960
TTITLE14=Santo and Johnny - Sleepwalk - La Bamba - 1959
TTITLE15=Chordettes, The - Lollipop - Stand By Me - 1958 Original Rona
TTITLE15=ld and Ruby 1958
TTITLE16=Ritchie Valens - La Bamba - La Bamba - 1958
TTITLE17=Skyliners, The Since I Don't Have You - Lethal Weapon 2 - 195
TTITLE17=9
TTITLE18=Platters, The - The Great Pretender - Rock Around The Clock -
TTITLE18=1955
TTITLE19=Danny and The Juniors - At The Hop - American Grafitti - 1957
EXTD=
EXTT0=
EXTT1=
EXTT2=
EXTT3=
EXTT4=
EXTT5=
EXTT6=
EXTT7=
EXTT8=
EXTT9=
EXTT10=
EXTT11=
EXTT12=
EXTT13=
EXTT14=
EXTT15=
EXTT16=
EXTT17=
EXTT18=
EXTT19=
PLAYORDER=
